<svg id="colors" xmlns="http://www.w3.org/2000/svg" viewBox="0 0 742.56 683.9"><defs><style>.cls-1{fill:#0071bc;}.cls-2,.cls-7,.cls-8,.cls-9{fill:none;}.cls-2{stroke:#000;}.cls-10,.cls-11,.cls-2,.cls-7,.cls-8,.cls-9{stroke-miterlimit:10;}.cls-3{fill:#c1272d;}.cls-4{fill:#fff;}.cls-5{fill:#fbb03b;}.cls-6{fill:#006837;}.cls-10,.cls-11,.cls-7,.cls-8,.cls-9{stroke:#1b1464;}.cls-11,.cls-7{stroke-width:5px;}.cls-8{stroke-width:3px;}.cls-10,.cls-11,.cls-12{fill:#1b1464;}.cls-13{fill:#2e3192;}</style></defs><path class="cls-1" d="M1291.88,521l-.26.43-.2.31Z" transform="translate(-578.28 -126.48)"/><path class="cls-2" d="M684.75,696.23" transform="translate(-578.28 -126.48)"/><path class="cls-3" d="M1318.31,443.87C1316,645.56,1151.8,808.36,949.56,808.36q-17.77,0-35.13-1.66c0-.15.07-.31.1-.47q17.29,1.63,35,1.65C1151.64,807.88,1315.76,645.34,1318.31,443.87Z" transform="translate(-578.28 -126.48)"/><path class="cls-3" d="M1290.7,494c-26.22,173.92-176.31,307.24-357.54,307.24q-8.73,0-17.36-.42c6-24.49,23.18-77.29,70-120.22a225,225,0,0,1,107-54.82h0a250.12,250.12,0,0,0,50.75-10.47C1214.22,593,1258,546,1284.07,504.87l.6-.93.37-.59.16-.24.22-.35.2-.31c.1-.15.18-.29.26-.43s.27-.44.41-.66l.31-.5c.28-.46.57-.93.84-1.39s.67-1.1,1-1.65.66-1.1,1-1.65Q1290.07,495.06,1290.7,494Z" transform="translate(-578.28 -126.48)"/><path class="cls-3" d="M1300,507.09q-1.29,2.39-2.69,4.82C1298.22,510.28,1299.12,508.68,1300,507.09Z" transform="translate(-578.28 -126.48)"/><path class="cls-4" d="M1094.94,673.87l4.69,18.23a24,24,0,0,0-25.47-6.91l9.65,37.56a20.15,20.15,0,0,1-.93,10.91c-3.23,8.35-11.12,11.37-12.44,11.85-6.25,3.33-13.36,2.88-17.54-.94-6-5.51-3.76-16,1-21.73,5-6,14-8.05,22.23-4.89L1062.5,664.8l6-1.54a34.49,34.49,0,0,1,17.21,3.63A33.26,33.26,0,0,1,1094.94,673.87Z" transform="translate(-578.28 -126.48)"/><path class="cls-5" d="M893.45,563.11a221.15,221.15,0,0,0-102.37,52.78c-47.9,43.92-62.32,96.37-66.56,115.86a369.91,369.91,0,0,1-47.94-44.23V640.17h35.58a18.18,18.18,0,1,0-.47-11.92h-47v45.49a367.68,367.68,0,0,1-41.33-62.06l13.26,0,40.21.06,0-11.92-40.21-.06-19.32,0q-5-10.39-9.41-21.16H757.16V566.66H632.48V514.2H620.55v52.46H603.26a366.67,366.67,0,0,1-20.41-87.82h13.61V466.92H581.78q-1-13.55-1-27.34A368.34,368.34,0,0,1,597.64,329c9,114.68,40.21,155.69,69.77,170.23v40.67h47a18.2,18.2,0,1,0,.47-11.92H679.33V503.84c45,12.83,94.84-19.74,153.81,6.76l0,29.39-52.42-.08,0,11.92,52.43.08,11.92,0h0l0-11.93h0l0-23.22C868.2,530.53,882,549.74,893.45,563.11Z" transform="translate(-578.28 -126.48)"/><path class="cls-6" d="M1094.89,624.62a225,225,0,0,0-107,54.82c-46.81,42.93-64,95.73-70,120.22a359.6,359.6,0,0,1-124-28.26A366,366,0,0,0,916.6,805.12c0,.16-.07.32-.1.47a367.27,367.27,0,0,1-189.91-74.94h0l.09-.41c.86-3.91,2.12-9.09,4-15.2.14-.49.29-1,.45-1.48a227.14,227.14,0,0,1,15.62-38.08c.57-1.08,1.14-2.17,1.74-3.27.44-.81.89-1.63,1.35-2.45s.77-1.38,1.17-2.07q1.77-3.1,3.72-6.27c.36-.59.73-1.18,1.11-1.78.69-1.12,1.41-2.24,2.15-3.36l1-1.48a219.39,219.39,0,0,1,14.26-19.1c.6-.71,1.19-1.42,1.8-2.12s1.21-1.41,1.84-2.12,1.24-1.41,1.88-2.11q2.85-3.17,5.91-6.29c.68-.7,1.37-1.39,2.07-2.08q3.12-3.12,6.47-6.19A221.15,221.15,0,0,1,895.52,562C900.62,566.44,983,635.74,1094.89,624.62Z" transform="translate(-578.28 -126.48)"/><path class="cls-4" d="M875,637.4a53.15,53.15,0,0,0-16.69,19.41,35.17,35.17,0,0,1-18.7,14.45l4.95,6.92a32.44,32.44,0,0,1,4.12-5.11,33.16,33.16,0,0,1,5.66-4.6,67.73,67.73,0,0,0,32.11,15.41c28,4.81,57.93-10,77.81-37.24C932.73,625.66,897.52,621.69,875,637.4Zm32.62,14c-2.67.41-5.27.85-7.84,1.32q-2.52.62-5.09,1.29c-1.61.42-3.19.86-4.75,1.3a89.23,89.23,0,0,1,11,3.92,88,88,0,0,1,16.72,9.54,95.87,95.87,0,0,0-39.3-8.83,87.86,87.86,0,0,1,28.18,10.26,96,96,0,0,0-48.64-3.3,94,94,0,0,1,31-18.53,92.8,92.8,0,0,1,25-5.2,97.28,97.28,0,0,1,43.56,5.35A271.11,271.11,0,0,0,907.59,651.35Z" transform="translate(-578.28 -126.48)"/><path class="cls-4" d="M833.11,681.25c-14.51,2.32-25.41,9.38-32.28,15a33,33,0,0,1-9.67-9.81c-1.68,2.28-3.35,4.57-5,6.86a34.94,34.94,0,0,1,8.89,4.5A35.62,35.62,0,0,1,804.67,708a53.17,53.17,0,0,0,16.47,19.6c22.37,16,57.63,12.38,89.36-8.24C890.92,691.9,861.18,676.76,833.11,681.25Zm27,41.08a93,93,0,0,1-25-5.49A93.92,93.92,0,0,1,804.33,698,96,96,0,0,0,853,695.21a88.08,88.08,0,0,1-17.73,7.49,89.86,89.86,0,0,1-10.56,2.45,95.13,95.13,0,0,0,15.86-1.29,96.2,96.2,0,0,0,23.54-7.09,88.24,88.24,0,0,1-27.83,13.14q2.33.69,4.73,1.36c1.71.47,3.4.91,5.08,1.34,2.56.5,5.16,1,7.82,1.41a270.34,270.34,0,0,0,49.78,3.44A97.44,97.44,0,0,1,860.07,722.33Z" transform="translate(-578.28 -126.48)"/><path class="cls-7" d="M1190.11,225a53,53,0,0,1-21,5c-6.13-.48-12.47-1.13-19-2-2.37-.31-4.7-.65-7-1a224.12,224.12,0,0,1-13,20c-7.44,10.22-11.28,15.39-17,18-3.41,1.56-6.09,1.87-22,2-8.8.07-16.37,0-22.3,0l-1.71.14-2.06.21-1.67.21-.53.07-.84.12-1.68.27c-.56.09-1.14.2-1.73.31l-1.52.3-1.12.24-.64.14-1.65.39-.23.06-1.93.51c-.46.12-.93.26-1.4.4-.81.23-1.63.49-2.45.76l-1.75.59c-.67.23-1.34.48-2,.74s-1.21.46-1.82.71h0l-.06,0,0,0,0,0-.58.23-1.12.48-1.75.78-.2.09-.84.4q-1.32.63-2.64,1.32c-.88.46-1.77.94-2.66,1.45l-1.11.64-.15.09-.12.07-1.32.81-1.33.84-.95.63-.93.63c-.6.41-1.19.82-1.76,1.23-1.47,1.07-2.84,2.13-4.13,3.19l-1.12.94-1.08.93,0,129.4v41h0V550H919.3l-.19-.18V288a84.49,84.49,0,0,0-14-10,86.78,86.78,0,0,0-36.7-11c-5.93,0-13.5.07-22.3,0-15.91-.13-18.59-.44-22-2-5.72-2.61-9.56-7.78-17-18a224.12,224.12,0,0,1-13-20c-2.3.35-4.63.69-7,1-6.53.87-12.87,1.52-19,2a53,53,0,0,1-21-5c-5.56-2.64-16.11-8.88-15-13,.26-1,1.58-3.38,11.56-4h12.84l-3.21-6.5a58.74,58.74,0,0,1,26.81,1.5,56.91,56.91,0,0,1,11.71,5h81.29c.81-.33,1.63-.66,2.46-1h0l1.58-.61h0c3.17-1.19,6.48-2.34,9.92-3.4q6.67-2.06,13.09-3.5l.07,0c4.85-1.11,9.59-2,14.17-2.63,5.32-.76,10.45-1.26,15.32-1.53h0c3.58-.22,7-.31,10.32-.32l0-.71a172.42,172.42,0,0,1,5-35.29c5.27-21.16,10.78-25.91,15-28a20,20,0,0,1,8-2h1a20,20,0,0,1,8,2c4.22,2.09,9.73,6.84,15,28a173.35,173.35,0,0,1,5,36,180.26,180.26,0,0,1,53,8c5,1.53,9.62,3.22,14,5h81.29a56.91,56.91,0,0,1,11.71-5,58.74,58.74,0,0,1,26.81-1.5l-3.21,6.5h12.84c10,.62,11.3,3,11.56,4C1206.22,216.09,1195.67,222.33,1190.11,225Z" transform="translate(-578.28 -126.48)"/><polyline class="cls-8" points="418.83 68.5 418.83 290.9 423.14 290.9 439.87 290.9"/><line class="cls-8" x1="423.14" y1="290.9" x2="423.14" y2="423.51"/><line class="cls-8" x1="410.76" y1="318.67" x2="410.76" y2="423.51"/><line class="cls-8" x1="399.29" y1="313.11" x2="399.29" y2="423.51"/><path class="cls-8" d="M919.3,408.91c12.86,8,28.43,16.27,45.67,24.75,16.5,8.11,34.53,16.4,53.18,24.76" transform="translate(-578.28 -126.48)"/><line class="cls-8" x1="385.76" y1="423.51" x2="385.76" y2="306.73"/><line class="cls-8" x1="374.03" y1="300.83" x2="374.03" y2="423.51"/><line class="cls-8" x1="362.41" y1="294.73" x2="362.41" y2="423.51"/><line class="cls-8" x1="352.14" y1="289.04" x2="352.14" y2="423.51"/><line class="cls-8" x1="433.2" y1="328.94" x2="433.2" y2="423.51"/><path class="cls-9" d="M1031,278.62" transform="translate(-578.28 -126.48)"/><path class="cls-10" d="M950.45,146a72.51,72.51,0,0,0,6.85,39.2c2.47,3,6.45,6.82,11.64,7.18,7.18.49,13.74-5.8,13.39-5.38-2.37,2.86-6.46,5.94-12,8.87-6,3.13-10.5,1.94-22.91,3.51-15.57,2-9.31,2.47-26.67,2.07-11.29-.26-26.82,3.36-45.93,5.66l31.52-9.46,35.49-3.54A165.39,165.39,0,0,1,950.45,146Z" transform="translate(-578.28 -126.48)"/><path class="cls-7" d="M1018.16,490.11V458.42h0v-41l0-129.4,1.08-.93,1.12-.94c1.29-1.06,2.66-2.12,4.13-3.19.57-.41,1.16-.82,1.76-1.23.3-.22.61-.42.93-.63l.95-.63,1.33-.84c.43-.28.87-.54,1.32-.81l.12-.07.15-.09,1.11-.64c.89-.51,1.78-1,2.66-1.45s1.76-.9,2.64-1.32l.84-.4.2-.09,1.75-.78,1.12-.48.58-.23,0,0,0,0,.06,0,1.84-.72c.68-.26,1.35-.51,2-.74l1.75-.59c.82-.27,1.64-.53,2.45-.76l1.4-.4,1.93-.51.23-.06,1.65-.39.64-.14.85-.19.27,0,1.52-.3c.59-.11,1.17-.22,1.73-.31l1.68-.27.84-.12.53-.07,1.67-.21,2.06-.21,1.71-.14c5.93,0,13.5.07,22.3,0,15.91-.13,18.59-.44,22-2,5.72-2.61,9.56-7.78,17-18a224.12,224.12,0,0,0,13-20c2.3.35,4.63.69,7,1,6.53.87,12.87,1.52,19,2a53,53,0,0,0,21-5c5.56-2.64,16.11-8.88,15-13-.26-1-1.58-3.38-11.56-4h-12.84l3.21-6.5a58.74,58.74,0,0,0-26.81,1.5,56.91,56.91,0,0,0-11.71,5h-81.29c-4.38-1.78-9-3.47-14-5a180.26,180.26,0,0,0-53-8,173.35,173.35,0,0,0-5-36c-5.27-21.16-10.78-25.91-15-28a20,20,0,0,0-8-2h-1a20,20,0,0,0-8,2c-4.22,2.09-9.73,6.84-15,28a172.42,172.42,0,0,0-5,35.29l0,.71c-3.3,0-6.74.1-10.32.32-4.88.27-10,.77-15.35,1.53-4.58.65-9.32,1.52-14.17,2.63q-6.45,1.45-13.16,3.52c-3.44,1.06-6.75,2.21-9.92,3.4-.55.21-1.09.41-1.62.63-.83.31-1.65.64-2.46,1H791.82a56.91,56.91,0,0,0-11.71-5,58.74,58.74,0,0,0-26.81-1.5l3.21,6.5H743.67c-10,.62-11.3,3-11.56,4-1.11,4.12,9.44,10.36,15,13a53,53,0,0,0,21,5c6.13-.48,12.47-1.13,19-2,2.37-.31,4.7-.65,7-1a224.12,224.12,0,0,0,13,20c7.44,10.22,11.28,15.39,17,18,3.41,1.56,6.09,1.87,22,2,8.8.07,16.37,0,22.3,0a86.78,86.78,0,0,1,36.7,11,84.49,84.49,0,0,1,14,10V549.8l.19.18" transform="translate(-578.28 -126.48)"/><path class="cls-11" d="M1318.2,429.74V429c-9.27-8.52-17.4-13.64-24.42-16.58-8.57-3.59-15.47-3.94-20.73-3.27-16,2-22.73,14.07-46.93,28.13a170.1,170.1,0,0,1-24.19,11.59c-1.66-4.95-52.91-150.09-95.1-150.09-37.6,0-70.06,81.45-88.66,191.3V550H919.3c12.89,12.81,73.38,70.06,165.58,69.63,117.33-.55,185.53-94,199.19-114.74l.6-.93.37-.59.16-.24.22-.35.46-.74c.13-.22.27-.44.41-.66l.31-.5c.28-.46.57-.93.84-1.39s.67-1.1,1-1.65.66-1.1,1-1.65q.66-1.11,1.29-2.22c-26.22,173.92-176.31,307.24-357.54,307.24q-8.73,0-17.36-.42a359.6,359.6,0,0,1-124-28.26,366,366,0,0,0,122.74,33.72q17.29,1.63,35,1.65c202.08,0,366.2-162.54,368.75-364q0-2.39,0-4.77v-.33Z" transform="translate(-578.28 -126.48)"/><path class="cls-7" d="M791.79,772.51a370.14,370.14,0,0,1-115.21-85.45q-6.12-6.73-11.92-13.78a369.06,369.06,0,0,1-41.09-61.6q-3.14-5.89-6-11.93-5.06-10.39-9.45-21.16-2.43-5.91-4.64-11.93a366.36,366.36,0,0,1-20.54-87.82q-.64-5.94-1.08-11.92-.87-11.43-1-23.05,0-2.39,0-4.77c0-1,0-2.07,0-3.13s0-2.39.05-3.6c0-3.15.16-6.37.31-9.66.06-1.53.14-3.08.24-4.64.06-1.18.13-2.36.22-3.56l0-.48q.23-3.25.51-6.6c.2-2.32.42-4.66.68-7s.51-4.64.81-7c0-.25.06-.51.09-.77.07-.57.15-1.14.23-1.71.13-1,.27-2.06.42-3.08.17-1.22.34-2.44.53-3.64q.38-2.52.78-5c.24-1.45.49-2.9.74-4.33s.52-2.84.78-4.24c2.27-11.93,5-23,7.84-33q.77-2.65,1.54-5.22c.35-1.14.69-2.27,1-3.38q.35,4.48.75,8.82c.13,1.44.26,2.87.4,4.28l.06.65c.15,1.47.3,2.91.45,4.35.13,1.18.25,2.34.38,3.5.09.75.17,1.49.26,2.24.06.57.13,1.14.2,1.71.08.72.17,1.43.26,2.14.14,1.21.3,2.4.45,3.59.1.82.21,1.63.32,2.43q.83,6.12,1.74,11.91c.11.7.22,1.4.34,2.1s.24,1.5.37,2.24.25,1.49.38,2.22l.39,2.19.39,2.17q1,5.46,2.1,10.61.63,2.94,1.28,5.78s0,0,0,0c.29,1.25.58,2.49.88,3.71.19.77.37,1.53.56,2.28.25,1,.5,2,.75,2.92.57,2.19,1.15,4.32,1.74,6.41.24.83.47,1.66.71,2.47.4,1.34.8,2.67,1.21,4,.17.56.34,1.12.52,1.67s.35,1.1.53,1.64q.79,2.44,1.62,4.8c.18.52.37,1,.55,1.55q2.49,6.94,5.17,13.05c.2.45.39.9.59,1.34q2.7,6,5.56,11.24c.42.78.84,1.53,1.27,2.28s.71,1.25,1.07,1.85.84,1.41,1.26,2.09.65,1.06,1,1.58c.52.85,1.06,1.68,1.6,2.48l1,1.45q.82,1.18,1.65,2.31l.78,1.06.69.91q.89,1.15,1.77,2.25l1.1,1.34.32.37,1,1.15c.38.44.77.87,1.15,1.29s.68.75,1,1.11.7.75,1.06,1.11l.88.9c.62.62,1.24,1.23,1.87,1.81l1.23,1.14c.45.41.9.81,1.35,1.19l.12.12,1.23,1,.2.17.86.69.88.69,1.38,1.05c.37.28.74.55,1.12.81l1,.68c1.59,1.1,3.17,2.1,4.76,3l1.44.81q1.41.78,2.82,1.47c1,.47,1.94.92,2.9,1.34a70.07,70.07,0,0,0,9,3.23h0c.49.15,1,.28,1.46.4.79.21,1.58.4,2.38.58.35.09.71.17,1.07.24s.68.15,1,.21c1,.2,2.06.39,3.09.55.46.08.91.15,1.37.21,1.33.19,2.66.34,4,.47l1.29.11,2.61.18,1.84.09c.65,0,1.3,0,2,.05,25.34.5,52.29-7.42,81.56-7.05l1.4,0q3.87.07,7.78.37l1.44.12c1,.09,2.1.19,3.16.31A120.39,120.39,0,0,1,818.15,505c.5.14,1,.3,1.51.46s.84.26,1.25.4.84.27,1.26.42q4.59,1.53,9.27,3.55l1.44.63.26.12q2,.91,4.1,1.93,4.08,2,7.82,4.25,2.18,1.29,4.23,2.64c.69.45,1.37.9,2,1.36s1.33.92,2,1.39,1.3.93,1.94,1.42,1.27.94,1.89,1.43,1.23,1,1.84,1.45,1.19,1,1.77,1.45l.07.06c.58.48,1.15,1,1.71,1.45s1.15,1,1.71,1.5c1.13,1,2.22,2,3.29,3l.09.08q1.56,1.47,3,3c.51.51,1,1,1.51,1.53s1,1,1.48,1.54,1,1,1.44,1.53,1,1,1.41,1.54c2.43,2.67,4.71,5.31,6.88,7.87l2.16,2.58,3.5,4.23,2,2.39c.83,1,1.63,1.95,2.43,2.88,5.1,4.44,87.51,73.74,199.37,62.62h0a250.12,250.12,0,0,0,50.75-10.47C1214.22,593,1258,546,1284.07,504.87" transform="translate(-578.28 -126.48)"/><path class="cls-4" d="M1145.29,463.05c0,5.9-3.87,10.67-8.63,10.67s-8.61-4.8-8.6-10.7,3.87-10.67,8.63-10.67S1145.3,457.15,1145.29,463.05Z" transform="translate(-578.28 -126.48)"/><path class="cls-4" d="M1167.3,494.08a4.58,4.58,0,0,1-2.75,4.18l-.22.09-17.59,7.34a5,5,0,0,1-2.53.69,4.87,4.87,0,0,1-2.26-.55h0l-2-1.93-8.47-8.13-13.13,21.35s18.58,16.56,18.27,16.8a4.8,4.8,0,0,1,.67,6.06v0l-.34.45h0l-20.31,27.69,0,.08a4.66,4.66,0,0,1-8.44-2.66,4.5,4.5,0,0,1,1-2.89l0,0,16.71-24.85-22.72-12.44a10.89,10.89,0,0,1-4.12-12.41l14.58-28.66-13.79-.14-17.37,16.3h0a4.65,4.65,0,0,1-8-3.17,4.49,4.49,0,0,1,1.47-3.33L1095,476.31l0-.05.8-.74,0,0a4.94,4.94,0,0,1,2.93-1,112.27,112.27,0,0,1,14.11-1.55c3.7-.16,7.16-.14,10.34,0a27.13,27.13,0,0,1,6.89,3.45,27.41,27.41,0,0,1,6.88,6.91l8.43,13.29,15.42-6.81a4.8,4.8,0,0,1,1.82-.36A4.62,4.62,0,0,1,1167.3,494.08Z" transform="translate(-578.28 -126.48)"/><path class="cls-4" d="M1105.21,532.94l-9.15,19.67-.18.39v0a4.78,4.78,0,0,1-1.18,1.46l-1,.68-24,15.44a4.65,4.65,0,0,1-7.35-3.74,4.54,4.54,0,0,1,1.91-3.7l0,0,.27-.17,23-15.07,8.36-22.62Z" transform="translate(-578.28 -126.48)"/><path class="cls-10" d="M997.11,409.94a145.51,145.51,0,0,1-24.39-19.26c-25.43-24.94-35-52.84-39.75-67.26a192.47,192.47,0,0,1-9.47-52.89c-26.59-5.06-55.42-23.41-87.75-62.56h37.36c29.52,40.5,63.13,65.24,106.64,51.86-4.36,3.63-24.17,6.8-39.06,8.73a42.63,42.63,0,0,0,2.77,11.1,43.85,43.85,0,0,0,12.14,16.86,78.5,78.5,0,0,1-18.84-11.7c-1.93-1.61-3.67-3.24-5.26-4.85A192.17,192.17,0,0,0,941,326.1C955.59,369.15,982.1,396.59,997.11,409.94Z" transform="translate(-578.28 -126.48)"/><path class="cls-10" d="M876.3,267.89c-13.17-9.7-39.9-36.87-51-46.36a167.23,167.23,0,0,1,32.1,44.79" transform="translate(-578.28 -126.48)"/><path class="cls-12" d="M1047.65,271.1c1.68-2.69,3.55-5.44,5.63-8.21a118.26,118.26,0,0,1,26.14-25.38,243.14,243.14,0,0,1-30.73,21.1c-6.61,3.82-13,7.11-19.1,9.95-.71-1.73-1.38-3.57-2-5.52a71.13,71.13,0,0,1-3.21-19.11,89.05,89.05,0,0,1-6.28,44" transform="translate(-578.28 -126.48)"/><path class="cls-13" d="M986.38,155.5h-8.62a3,3,0,0,0-3.21,1.91c-.26,1.28,1.06,3.08,3.21,3.13h6.65c1.92-.47,3.11-1.95,3-3.29A2.67,2.67,0,0,0,986.38,155.5Z" transform="translate(-578.28 -126.48)"/><path class="cls-13" d="M953.12,155.5h8.62a3,3,0,0,1,3.21,1.91c.26,1.28-1.05,3.08-3.21,3.13h-6.65c-1.92-.47-3.1-1.95-3-3.29A2.71,2.71,0,0,1,953.12,155.5Z" transform="translate(-578.28 -126.48)"/><path class="cls-13" d="M969.37,158.72a.13.13,0,0,0-.25-.07,44.69,44.69,0,0,0-2.65,10.68,46.47,46.47,0,0,0-.32,6.43,1.38,1.38,0,0,0,1.3,1.44h4.77a1.39,1.39,0,0,0,1.3-1.47v-.26a1.4,1.4,0,0,0-1.3-1.48h-1.61a1.4,1.4,0,0,1-1.3-1.48Z" transform="translate(-578.28 -126.48)"/></svg>